<svg width="250" height="250" viewBox="0 0 250 250" fill="none" xmlns="http://www.w3.org/2000/svg">
<path d="M41.6667 55.625C41.6667 40.3191 54.1233 27.875 69.4444 27.875H180.556C195.877 27.875 208.333 40.3191 208.333 55.625V152.75C208.333 168.056 195.877 180.5 180.556 180.5H69.4444C54.1233 180.5 41.6667 168.056 41.6667 152.75V55.625ZM158.29 64.1234C153.429 61.0883 147.005 62.5625 143.924 67.4187L117.274 110.041L105.556 94.4316C102.083 89.8355 95.5729 88.8816 90.9722 92.3504C86.3715 95.8191 85.4167 102.323 88.8889 106.919L109.722 134.669C111.762 137.401 115.061 138.962 118.49 138.832C121.918 138.702 125.043 136.88 126.866 133.932L161.589 78.432C164.627 73.5758 163.151 67.1586 158.29 64.0801V64.1234ZM20.8333 149.281V194.375C20.8333 198.191 23.9583 201.312 27.7778 201.312H222.222C226.042 201.312 229.167 198.191 229.167 194.375V149.281C229.167 143.514 233.811 138.875 239.583 138.875C245.356 138.875 250 143.514 250 149.281V194.375C250 209.681 237.543 222.125 222.222 222.125H27.7778C12.4566 222.125 0 209.681 0 194.375V149.281C0 143.514 4.6441 138.875 10.4167 138.875C16.1892 138.875 20.8333 143.514 20.8333 149.281Z" fill="white"/>
</svg>
